<svg width="32" height="32" viewBox="0 0 32 32" fill="none" xmlns="http://www.w3.org/2000/svg">
<path d="M26.3184 6.69156C24.4295 5.8078 22.4099 5.16552 20.2983 4.7998C20.039 5.26864 19.7361 5.89924 19.5272 6.40088C17.2826 6.06332 15.0586 6.06332 12.8553 6.40088C12.6465 5.89924 12.3366 5.26864 12.075 4.7998C9.96118 5.16552 7.93918 5.81016 6.0503 6.69624C2.24041 12.4535 1.20761 18.0677 1.72401 23.6022C4.25093 25.4893 6.69982 26.6356 9.10738 27.3857C9.70182 26.5676 10.232 25.6979 10.6887 24.7814C9.81886 24.4508 8.98574 24.043 8.19854 23.5694C8.40738 23.4147 8.61166 23.253 8.80902 23.0865C13.6104 25.3322 18.8272 25.3322 23.5712 23.0865C23.7709 23.253 23.9751 23.4147 24.1817 23.5694C23.3921 24.0453 22.5567 24.4532 21.6869 24.7837C22.1436 25.6979 22.6715 26.57 23.2682 27.388C25.6781 26.6379 28.1293 25.4916 30.6562 23.6022C31.2621 17.1863 29.6211 11.6236 26.3184 6.69156ZM11.3428 20.1986C9.9015 20.1986 8.7195 18.853 8.7195 17.2144C8.7195 15.5759 9.87626 14.228 11.3428 14.228C12.8094 14.228 13.9914 15.5735 13.9661 17.2144C13.9684 18.853 12.8094 20.1986 11.3428 20.1986ZM21.0374 20.1986C19.5961 20.1986 18.4141 18.853 18.4141 17.2144C18.4141 15.5759 19.5708 14.228 21.0374 14.228C22.5039 14.228 23.6859 15.5735 23.6607 17.2144C23.6607 18.853 22.5039 20.1986 21.0374 20.1986Z" fill="#B3926B"/>
</svg>
